# xmcd
#
# Track frame offsets: 
#        150
#        58214
#        126115
#        231819
#        276763
#
# Disc length: 4307 seconds
#
# Revision: 0
# Processed by: cddbd v1.5.2PL0 Copyright (c) Steve Scherf et al.
# Submitted via: ExactAudioCopy v0.99pb4
#
DISCID=4410d105
DTITLE=Robert Spano and Atlanta Symphony Orcherstra and Chorus - Sibelius:
DTITLE=Kullervo
DYEAR=2006
DGENRE=Symphony
TTITLE0=1. Introduction
TTITLE1=2. Kullervo's youth
TTITLE2=3. Kullervo and his sister
TTITLE3=4. Kullervo goes to battle
TTITLE4=5. Kullervo's death
EXTD=
EXTT0=
EXTT1=
EXTT2=
EXTT3=
EXTT4=
PLAYORDER=
